<svg width="35" height="35" viewBox="-5 0 58 58" fill="none" xmlns="http://www.w3.org/2000/svg">
<path d="M42.75 9H11.25C9.45979 9 7.7429 9.71116 6.47703 10.977C5.21116 12.2429 4.5 13.9598 4.5 15.75V38.25C4.5 40.0402 5.21116 41.7571 6.47703 43.023C7.7429 44.2888 9.45979 45 11.25 45H42.75C44.5402 45 46.2571 44.2888 47.523 43.023C48.7888 41.7571 49.5 40.0402 49.5 38.25V15.75C49.5 13.9598 48.7888 12.2429 47.523 10.977C46.2571 9.71116 44.5402 9 42.75 9V9ZM41.2425 13.5L27 24.1875L12.7575 13.5H41.2425ZM42.75 40.5H11.25C10.6533 40.5 10.081 40.2629 9.65901 39.841C9.23705 39.419 9 38.8467 9 38.25V16.3125L25.65 28.8C26.0395 29.0921 26.5132 29.25 27 29.25C27.4868 29.25 27.9605 29.0921 28.35 28.8L45 16.3125V38.25C45 38.8467 44.7629 39.419 44.341 39.841C43.919 40.2629 43.3467 40.5 42.75 40.5Z" fill="#5F6368" fill-opacity="1"/>
</svg>
