<svg width="35" height="35" viewBox="-5 0 58 58" fill="none" xmlns="http://www.w3.org/2000/svg">
<path d="M43.875 24.4688H40.2891V12.6562C40.2891 8.92793 37.2674 5.90625 33.5391 5.90625H20.4609C16.7326 5.90625 13.7109 8.92793 13.7109 12.6562V24.4688H10.125C9.1916 24.4688 8.4375 25.2229 8.4375 26.1562V46.4062C8.4375 47.3396 9.1916 48.0938 10.125 48.0938H43.875C44.8084 48.0938 45.5625 47.3396 45.5625 46.4062V26.1562C45.5625 25.2229 44.8084 24.4688 43.875 24.4688ZM28.4766 36.9668V39.7617C28.4766 39.9938 28.2867 40.1836 28.0547 40.1836H25.9453C25.7133 40.1836 25.5234 39.9938 25.5234 39.7617V36.9668C25.0881 36.6543 24.7632 36.2117 24.5955 35.7027C24.4277 35.1938 24.4258 34.6447 24.5899 34.1346C24.7541 33.6245 25.0759 33.1796 25.509 32.864C25.9421 32.5484 26.4641 32.3784 27 32.3784C27.5359 32.3784 28.0579 32.5484 28.491 32.864C28.9241 33.1796 29.2459 33.6245 29.4101 34.1346C29.5742 34.6447 29.5723 35.1938 29.4045 35.7027C29.2368 36.2117 28.9119 36.6543 28.4766 36.9668ZM36.4922 24.4688H17.5078V12.6562C17.5078 11.0268 18.8314 9.70312 20.4609 9.70312H33.5391C35.1686 9.70312 36.4922 11.0268 36.4922 12.6562V24.4688Z" fill="#5F6368" fill-opacity="1"/>
</svg>
