<svg width="390" height="844" viewBox="0 0 390 844" fill="none" xmlns="http://www.w3.org/2000/svg">
<path opacity="0.01" d="M576.884 633.313C561.682 665.914 497.111 660.754 537.956 716.794C578.801 772.833 442.587 780.187 479.042 843.135C515.497 906.084 411.026 832.836 447.571 910.624C484.116 988.412 338.395 930.975 402.678 1006.9C466.96 1082.82 265.945 1064.63 347.194 1125.88C428.443 1187.14 353.308 1182.08 301.554 1223.76C249.8 1265.43 262.477 1307.56 262.477 1307.56" stroke="black" stroke-width="0.705834"/>
<path opacity="0.0204082" d="M575.429 625.799C557.443 656.952 493.567 646.184 529.373 705.57C565.179 764.956 428.842 760.41 459.672 826.296C490.502 892.183 392.813 810.108 422.439 890.785C452.065 971.462 311.905 901.543 369.325 982.781C426.746 1064.02 228.081 1028.38 303.683 1096.48C379.284 1164.58 304.876 1153 249.686 1190C194.497 1227.01 203.454 1270.08 203.454 1270.08" stroke="black" stroke-width="0.705834"/>
<path opacity="0.0408163" d="M574.313 618.482C553.68 647.948 490.987 631.654 521.48 693.935C551.974 756.216 416.552 739.804 441.522 808.127C466.493 876.45 376.329 786.173 398.811 869.125C421.293 952.077 287.759 870.209 337.881 956.142C388.002 1042.08 193.2 989.256 262.579 1063.68C331.957 1138.11 258.841 1120.09 200.637 1152.15C142.432 1184.2 147.601 1227.89 147.601 1227.89" stroke="black" stroke-width="0.705834"/>
<path opacity="0.0612245" d="M573.518 611.389C550.396 638.945 489.361 617.249 514.31 681.951C539.259 746.652 405.783 718.5 424.704 788.739C443.625 858.978 361.672 761.187 376.839 845.783C392.005 930.379 266.115 837.183 308.556 927.158C350.998 1017.13 161.54 947.536 224.168 1027.73C286.796 1107.92 215.529 1083.6 154.752 1110.46C93.9747 1137.32 95.3167 1181.29 95.3167 1181.29" stroke="black" stroke-width="0.705834"/>
<path opacity="0.0816327" d="M573.023 604.549C547.588 629.984 488.676 603.051 507.891 669.681C527.106 736.311 396.592 696.633 409.319 768.253C422.046 839.874 348.927 735.313 356.664 820.908C364.4 906.504 247.111 802.691 281.549 896.023C315.987 989.355 133.316 903.51 188.716 988.856C244.116 1074.2 175.241 1043.76 112.354 1065.22C49.4673 1086.68 46.9719 1130.6 46.9719 1130.6" stroke="black" stroke-width="0.705834"/>
<path opacity="0.102041" d="M572.806 597.985C545.25 621.107 488.909 589.142 502.245 657.193C515.58 725.244 389.02 674.341 395.456 746.799C401.893 819.256 338.166 708.72 338.412 794.664C338.659 880.609 230.864 766.969 257.037 862.946C283.209 958.924 108.716 857.485 156.467 947.335C204.217 1037.18 138.257 1000.85 73.7395 1016.75C9.2216 1032.65 2.90772 1076.19 2.90772 1076.19" stroke="black" stroke-width="0.705834"/>
<path opacity="0.122449" d="M572.84 591.721C543.374 612.354 490.034 575.6 497.387 644.554C504.74 713.508 383.098 651.769 383.195 724.512C383.292 797.255 329.442 681.585 322.197 767.224C314.952 852.862 217.472 730.26 235.18 828.154C252.888 926.047 87.8991 809.786 127.637 903.456C167.375 997.125 104.833 955.183 39.1749 965.398C-26.4831 975.613 -36.5674 1018.43 -36.5674 1018.43" stroke="black" stroke-width="0.705834"/>
<path opacity="0.142857" d="M573.099 585.779C541.947 603.765 492.013 562.502 493.328 631.834C494.644 701.167 378.846 629.061 372.603 701.536C366.359 774.01 322.795 654.087 308.114 738.768C293.432 823.45 207.009 692.818 216.117 791.882C225.226 890.947 70.9979 760.748 102.421 857.525C133.844 954.301 75.1951 907.068 8.89669 911.521C-57.4018 915.975 -71.1797 957.753 -71.1797 957.753" stroke="black" stroke-width="0.705834"/>
<path opacity="0.163265" d="M573.554 580.176C540.953 595.378 494.805 549.92 490.073 619.103C485.341 688.287 376.268 606.363 363.732 678.017C351.195 749.672 318.249 626.408 296.243 709.488C274.237 792.567 199.528 654.9 199.968 754.382C200.407 853.863 58.114 710.718 80.983 809.865C103.852 909.012 49.5427 856.847 -16.8916 855.505C-83.3259 854.163 -100.693 894.582 -100.693 894.582" stroke="black" stroke-width="0.705834"/>
<path opacity="0.183673" d="M574.175 574.928C540.372 587.231 498.362 537.924 487.618 606.432C476.875 674.939 375.357 583.821 356.623 654.11C337.89 724.399 315.812 598.733 286.649 679.579C257.485 760.424 195.059 616.769 186.827 715.911C178.594 815.052 49.3184 660.05 63.4591 760.813C77.5998 861.576 28.0438 804.875 -38.0208 797.749C-104.085 790.622 -124.909 829.373 -124.909 829.373" stroke="black" stroke-width="0.705834"/>
<path opacity="0.204082" d="M574.929 570.048C540.183 579.358 502.631 526.577 485.957 593.888C469.283 661.199 376.093 561.579 351.304 629.968C326.516 698.357 315.475 571.245 279.376 649.241C243.278 727.237 193.61 578.688 176.768 676.735C159.926 774.781 44.6513 609.102 49.9562 710.714C55.261 812.326 10.8354 751.522 -54.3567 738.664C-119.549 725.807 -143.67 762.596 -143.67 762.596" stroke="black" stroke-width="0.705834"/>
<path opacity="0.22449" d="M575.785 565.546C540.36 571.793 507.551 515.94 485.074 581.541C462.596 647.143 378.444 539.78 347.789 605.748C317.134 671.717 317.214 544.126 274.455 618.679C231.696 693.232 195.164 540.92 169.841 637.125C144.518 733.331 44.1214 558.235 40.55 659.923C36.9786 761.61 -1.97856 697.166 -65.802 678.676C-129.625 660.185 -156.862 694.732 -156.862 694.732" stroke="black" stroke-width="0.705834"/>
<path opacity="0.244898" d="M576.71 561.431C540.875 564.566 513.058 506.066 484.949 569.459C456.84 632.852 382.365 518.563 346.077 581.609C309.789 644.654 320.989 517.556 271.895 588.099C222.801 658.642 199.683 503.725 166.071 597.357C132.459 690.99 47.7059 507.81 35.2854 608.799C22.8649 709.789 -10.3273 642.194 -72.2963 618.212C-134.265 594.229 -164.409 626.27 -164.409 626.27" stroke="black" stroke-width="0.705834"/>
<path opacity="0.265306" d="M577.668 557.706C541.696 557.706 519.083 497.004 485.556 557.706C452.029 618.407 387.798 498.063 346.154 557.706C304.51 617.349 326.744 491.71 271.689 557.706C216.634 623.701 207.105 467.359 165.461 557.706C123.816 648.052 55.3504 458.183 34.1754 557.706C13.0004 657.228 -14.1743 586.998 -73.8173 557.706C-133.46 528.414 -166.282 557.706 -166.282 557.706" stroke="black" stroke-width="0.705834"/>
<path opacity="0.285714" d="M578.626 554.373C542.791 551.237 525.555 488.796 486.865 546.344C448.175 603.893 394.677 478.408 347.993 534.195C301.309 589.981 334.409 466.759 273.811 527.705C213.214 588.651 217.347 432.073 167.987 518.446C118.627 604.82 66.9702 409.706 37.2018 507.004C7.4334 604.302 -13.5168 531.971 -70.3799 497.592C-127.243 463.213 -162.492 489.533 -162.492 489.533" stroke="black" stroke-width="0.705834"/>
<path opacity="0.306122" d="M579.55 551.43C544.125 545.183 532.397 481.477 488.838 535.435C445.28 589.392 402.922 459.722 351.554 511.228C300.185 562.733 343.898 442.864 278.219 498.297C212.541 553.73 230.305 398.108 173.605 479.851C116.905 561.593 82.4498 362.72 44.3145 457.053C6.17929 551.387 -8.38712 477.505 -62.0375 438.3C-115.688 399.096 -153.097 422.244 -153.097 422.244" stroke="black" stroke-width="0.705834"/>
<path opacity="0.326531" d="M580.406 548.873C545.66 539.562 539.529 475.076 491.433 525.032C443.338 574.988 412.443 442.12 356.781 488.952C301.119 535.785 355.113 420.182 284.853 469.679C214.593 519.177 245.853 365.696 182.245 442.185C118.636 518.675 101.645 317.555 55.4328 408.206C9.22096 498.857 1.14923 423.987 -48.8801 380.256C-98.9094 336.525 -138.194 356.324 -138.194 356.324" stroke="black" stroke-width="0.705834"/>
<path opacity="0.346939" d="M581.161 546.694C547.358 534.391 546.871 469.616 494.604 515.19C442.338 560.764 423.141 425.709 363.609 467.512C304.077 509.315 367.941 398.858 293.634 442.043C219.328 485.229 263.846 335.056 193.813 405.711C123.78 476.366 124.382 274.531 70.445 360.809C16.5083 447.087 14.9927 371.798 -31.0348 323.873C-77.0624 275.948 -117.923 292.249 -117.923 292.249" stroke="black" stroke-width="0.705834"/>
<path opacity="0.367347" d="M581.781 544.884C549.18 529.682 554.34 465.111 498.3 505.956C442.261 546.801 434.907 410.587 371.959 447.042C309.01 483.497 382.258 379.027 304.47 415.572C226.682 452.116 284.119 306.395 208.195 370.678C132.27 434.96 150.461 233.945 89.21 315.194C27.9589 396.443 33.0109 321.308 -8.66456 269.554C-50.34 217.8 -92.4657 230.477 -92.4657 230.477" stroke="black" stroke-width="0.705834"/>
<path opacity="0.387755" d="M582.236 543.429C551.084 525.443 561.852 461.567 502.466 497.373C443.079 533.179 447.626 396.842 381.74 427.672C315.853 458.502 397.927 360.813 317.251 390.439C236.574 420.065 306.493 279.905 225.254 337.325C144.016 394.746 179.658 196.081 111.558 271.683C43.4588 347.284 55.0401 272.876 18.0338 217.686C-18.9724 162.497 -62.0426 171.454 -62.0426 171.454" stroke="black" stroke-width="0.705834"/>
<path opacity="0.408163" d="M582.495 542.313C553.029 521.68 569.323 458.987 507.042 489.48C444.761 519.974 461.173 384.552 392.851 409.522C324.528 434.493 414.804 344.329 331.852 366.811C248.9 389.293 330.769 255.759 244.835 305.881C158.901 356.002 211.722 161.2 137.293 230.579C62.8632 299.957 80.8855 226.841 48.8302 168.637C16.7748 110.432 -26.9121 115.601 -26.9121 115.601" stroke="black" stroke-width="0.705834"/>
<path opacity="0.428571" d="M582.53 541.518C554.974 518.396 576.67 457.361 511.968 482.31C447.267 507.259 475.419 373.783 405.18 392.704C334.941 411.625 432.732 329.672 348.136 344.839C263.54 360.005 356.736 234.115 266.761 276.556C176.786 318.998 246.383 129.54 166.19 192.168C85.9975 254.796 110.324 183.529 83.4632 122.752C56.6027 61.9747 12.6315 63.3167 12.6315 63.3167" stroke="black" stroke-width="0.705834"/>
<path opacity="0.44898" d="M582.312 541.023C556.876 515.588 583.809 456.676 517.18 475.891C450.55 495.106 490.228 364.592 418.607 377.319C346.986 390.046 451.548 316.927 365.952 324.664C280.357 332.4 384.169 215.111 290.838 249.549C197.506 283.987 283.351 101.316 198.005 156.716C112.659 212.116 143.104 143.241 121.643 80.354C100.181 17.4673 56.2606 14.9719 56.2606 14.9719" stroke="black" stroke-width="0.705834"/>
<path opacity="0.469388" d="M581.817 540.806C558.695 513.25 590.66 456.909 522.609 470.245C454.558 483.58 505.461 357.02 433.003 363.456C360.546 369.893 471.082 306.166 385.138 306.412C299.194 306.659 412.834 198.864 316.856 225.037C220.878 251.209 322.317 76.7158 232.467 124.467C142.618 172.217 178.95 106.257 163.051 41.7395C147.152 -22.7784 103.616 -29.0923 103.616 -29.0923" stroke="black" stroke-width="0.705834"/>
<path opacity="0.489796" d="M581.023 540.84C560.39 511.374 597.144 458.034 528.19 465.387C459.235 472.74 520.975 351.098 448.232 351.195C375.489 351.292 491.159 297.442 405.52 290.197C319.882 282.952 442.484 185.472 344.59 203.18C246.697 220.888 362.958 55.8991 269.288 95.6373C175.619 135.375 217.561 72.8329 207.346 7.1749C197.131 -58.4831 154.311 -68.5674 154.311 -68.5674" stroke="black" stroke-width="0.705834"/>
<path opacity="0.510204" d="M579.907 541.099C561.921 509.947 603.184 460.013 533.851 461.329C464.518 462.644 536.624 346.846 464.15 340.603C391.676 334.359 511.599 290.795 426.917 276.114C342.236 261.432 472.868 175.009 373.803 184.117C274.739 193.226 404.937 38.998 308.161 70.4211C211.384 101.844 258.618 43.1952 254.164 -23.1032C249.711 -89.4017 207.932 -103.18 207.932 -103.18" stroke="black" stroke-width="0.705834"/>
<path opacity="0.530612" d="M578.452 541.554C563.249 508.953 608.707 462.805 539.524 458.073C470.34 453.341 552.264 344.268 480.61 331.732C408.955 319.195 532.219 286.249 449.139 264.243C366.06 242.237 503.727 167.528 404.245 167.968C304.764 168.407 447.909 26.114 348.762 48.983C249.615 71.8519 301.781 17.5427 303.122 -48.8916C304.464 -115.326 264.045 -132.693 264.045 -132.693" stroke="black" stroke-width="0.705834"/>
<path opacity="0.55102" d="M576.641 542.175C564.338 508.372 613.645 466.362 545.137 455.618C476.63 444.875 567.748 343.357 497.459 324.623C427.17 305.89 552.836 283.812 471.99 254.649C391.145 225.485 534.8 163.059 435.658 154.827C336.517 146.594 491.519 17.3184 390.756 31.4591C289.993 45.5998 346.694 -3.95616 353.82 -70.0208C360.947 -136.085 322.196 -156.909 322.196 -156.909" stroke="black" stroke-width="0.705834"/>
<path opacity="0.571429" d="M574.463 542.929C565.153 508.183 617.934 470.631 550.623 453.957C483.312 437.283 582.932 344.093 514.543 319.304C446.154 294.516 573.266 283.475 495.27 247.376C417.274 211.278 565.822 161.61 467.776 144.768C369.729 127.926 535.409 12.6513 433.797 17.9562C332.185 23.261 392.989 -21.1646 405.846 -86.3567C418.704 -151.549 381.915 -175.67 381.915 -175.67" stroke="black" stroke-width="0.705834"/>
</svg>
